<svg width="86" height="85" viewBox="0 0 86 85" fill="none" xmlns="http://www.w3.org/2000/svg">
<path d="M44.4679 45.8053C44.2922 53.6038 39.7623 66.2863 30.0266 70.6442C23.1035 73.7474 15.2202 70.9815 9.89263 65.7736C1.13049 57.2466 -1.5874 43.0665 2.50972 31.5307C4.55151 24.6093 10.3389 16.8649 17.7488 15.1109C21.6701 13.9371 26.4704 14.6657 30.0131 16.568C32.0684 13.303 34.9486 10.0649 38.1668 7.83867V7.74423C32.3524 5.09978 24.0365 5.46407 18.3843 8.48629C28.3364 1.32201 43.3862 -1.14704 55.6234 2.84661C59.7746 4.20931 63.7906 6.00375 67.4686 8.59423C61.2215 5.46407 52.6757 4.26328 45.8607 7.15058C31.7574 13.276 26.7408 28.576 26.6191 42.8371C26.8896 50.9053 29.0395 58.2315 33.1096 64.6403C35.7464 62.5895 36.9363 59.6212 38.2209 56.8688C40.141 52.0522 40.9928 46.9117 41.074 41.326C41.2227 32.1514 45.455 18.9022 55.975 14.6387C63.9258 11.4141 72.1336 15.1244 77.637 21.4522C84.2897 29.453 87.0076 40.8942 84.0869 51.2292C82.2885 59.0815 76.3794 68.1617 67.9959 70.3204C63.9258 71.4673 59.1526 70.8331 55.5694 68.8498C53.46 72.1958 50.7015 75.4204 47.4563 77.7815V77.849C53.5546 80.6149 61.7218 80.1292 67.5362 76.8911C56.7458 84.9458 39.884 87.1046 27.0924 81.7617C23.9148 80.4665 20.8183 78.8339 17.9652 76.7831C24.6585 80.5474 35.1244 81.5863 42.1557 77.3093C53.5952 70.4688 58.2332 57.9887 58.9363 45.576C59.396 36.3474 56.9756 28.0093 52.4999 20.7911C49.7685 22.9633 48.4839 26.053 47.2264 28.9672C45.1576 34.1617 44.6032 39.7339 44.4679 45.8053Z" fill="white"/>
</svg>
