<svg width="26" height="26" viewBox="0 0 26 26" fill="none" xmlns="http://www.w3.org/2000/svg">
<path fill-rule="evenodd" clip-rule="evenodd" d="M11.75 0.796875C17.9632 0.796875 23 5.7393 23 11.8361C23 14.4423 22.0796 16.8376 20.5404 18.726L25.1339 23.2346C25.622 23.7136 25.622 24.4902 25.1339 24.9692C24.6833 25.4114 23.9742 25.4454 23.4839 25.0712L23.3661 24.9692L18.7715 20.4618C16.847 21.9722 14.406 22.8753 11.75 22.8753C5.5368 22.8753 0.5 17.9329 0.5 11.8361C0.5 5.7393 5.5368 0.796875 11.75 0.796875ZM11.75 3.25003C6.91751 3.25003 3 7.09414 3 11.8361C3 16.578 6.91751 20.4221 11.75 20.4221C16.5825 20.4221 20.5 16.578 20.5 11.8361C20.5 7.09414 16.5825 3.25003 11.75 3.25003Z" fill="white"/>
</svg>
