<svg width="30" height="30" viewBox="0 0 30 30" fill="none" xmlns="http://www.w3.org/2000/svg">
<path d="M15 0C6.71625 0 0 6.71625 0 15C0 23.2838 6.71625 30 15 30C23.2838 30 30 23.2838 30 15C30 6.71625 23.2838 0 15 0ZM15 28.125C7.76367 28.125 1.875 22.2363 1.875 15C1.875 7.76367 7.76367 1.875 15 1.875C22.2363 1.875 28.125 7.76367 28.125 15C28.125 22.2363 22.2363 28.125 15 28.125Z" fill="#B0BEC5"/>
<path d="M15 11.25C13.9655 11.25 13.125 12.0905 13.125 13.125V22.5C13.125 23.5345 13.9655 24.375 15 24.375C16.0345 24.375 16.875 23.5345 16.875 22.5V13.125C16.875 12.0905 16.0345 11.25 15 11.25ZM15 9.375C16.0345 9.375 16.875 8.53453 16.875 7.5C16.875 6.46547 16.0345 5.625 15 5.625C13.9655 5.625 13.125 6.46547 13.125 7.5C13.125 8.53453 13.9655 9.375 15 9.375Z" fill="#03A9F4"/>
</svg>
