<svg width="233" height="204" viewBox="0 0 233 204" fill="none" xmlns="http://www.w3.org/2000/svg">
<path d="M51.7401 37.1663C61.8271 37.1663 70.0276 28.9658 70.0276 18.8788C70.0276 8.79181 61.8271 0.591309 51.7401 0.591309C41.6531 0.591309 33.4526 8.79181 33.4526 18.8788C33.4655 28.9658 41.666 37.1663 51.7401 37.1663Z" fill="white"/>
<path d="M227.57 4.30029H73.865C75.8028 7.23913 76.5215 8.25296 77.8177 11.4356H226.261V155.272H83.9392V161.509H124.916L98.3766 200.06C97.7093 201.035 97.427 202.177 97.5296 203.268H106.333L132.359 165.461L158.385 203.268H167.189C167.279 202.177 167.009 201.035 166.342 200.06L139.815 161.509H227.57C230.29 161.509 232.498 159.301 232.498 156.568V9.22829C232.498 6.50762 230.29 4.30029 227.57 4.30029Z" fill="#2A2A86"/>
<path d="M132.372 73.9596C136.094 73.9596 139.405 71.3159 140.098 67.5301C140.893 63.2566 138.07 59.1499 133.797 58.3543L84.9144 49.2683C82.2194 45.8033 79.1779 44.8279 79.0881 44.8023C73.2489 42.2099 63.0207 40.6699 51.7402 40.6699C40.4597 40.6699 30.2316 42.2099 24.4309 44.7894C24.2898 44.8279 20.9146 45.9059 18.1298 49.8458C18.1298 49.8458 18.1297 49.8586 18.1169 49.8586C17.3597 50.9109 16.8978 52.1943 16.8978 53.5931C16.8978 53.7856 16.9106 53.9909 16.9234 54.1834L0.355587 116.207C-0.760912 120.403 1.72875 124.728 5.93808 125.845C6.61825 126.024 7.29842 126.114 7.97859 126.114C11.4564 126.114 14.6391 123.791 15.5759 120.275L27.3441 76.2311V120.686V124.061V192.848C27.3441 198.597 32.0154 203.268 37.7648 203.268C43.5141 203.268 48.1854 198.597 48.1854 192.848V134.636H55.6672V192.848C55.6672 198.353 60.1717 202.858 65.6772 202.858C71.1827 202.858 75.6872 198.353 75.6872 192.848V126.948C75.9439 126.024 76.0979 125.062 76.0979 124.061V63.5133C76.5342 63.6801 76.9834 63.8084 77.4582 63.8983L130.896 73.8313C131.41 73.9211 131.897 73.9596 132.372 73.9596Z" fill="white"/>
</svg>
