<svg width="29" height="44" viewBox="0 0 29 44" fill="none" xmlns="http://www.w3.org/2000/svg">
<path fill-rule="evenodd" clip-rule="evenodd" d="M2 9C3.10457 9 4 8.10457 4 7C4 5.89543 3.10457 5 2 5C0.895431 5 0 5.89543 0 7C0 8.10457 0.895431 9 2 9ZM9 12C9 13.1046 8.10457 14 7 14C5.89543 14 5 13.1046 5 12C5 10.8954 5.89543 10 7 10C8.10457 10 9 10.8954 9 12ZM14 17C14 18.1046 13.1046 19 12 19C10.8954 19 10 18.1046 10 17C10 15.8954 10.8954 15 12 15C13.1046 15 14 15.8954 14 17ZM19 22C19 23.1046 18.1046 24 17 24C15.8954 24 15 23.1046 15 22C15 20.8954 15.8954 20 17 20C18.1046 20 19 20.8954 19 22ZM12 29C13.1046 29 14 28.1046 14 27C14 25.8954 13.1046 25 12 25C10.8954 25 10 25.8954 10 27C10 28.1046 10.8954 29 12 29ZM9 32C9 33.1046 8.10457 34 7 34C5.89543 34 5 33.1046 5 32C5 30.8954 5.89543 30 7 30C8.10457 30 9 30.8954 9 32ZM2 39C3.10457 39 4 38.1046 4 37C4 35.8954 3.10457 35 2 35C0.895431 35 0 35.8954 0 37C0 38.1046 0.895431 39 2 39Z" fill="#00653E"/>
<path fill-rule="evenodd" clip-rule="evenodd" d="M7 4C8.10457 4 9 3.10457 9 2C9 0.895431 8.10457 0 7 0C5.89543 0 5 0.895431 5 2C5 3.10457 5.89543 4 7 4ZM14 7C14 8.10457 13.1046 9 12 9C10.8954 9 10 8.10457 10 7C10 5.89543 10.8954 5 12 5C13.1046 5 14 5.89543 14 7ZM17 14C18.1046 14 19 13.1046 19 12C19 10.8954 18.1046 10 17 10C15.8954 10 15 10.8954 15 12C15 13.1046 15.8954 14 17 14ZM24 17C24 18.1046 23.1046 19 22 19C20.8954 19 20 18.1046 20 17C20 15.8954 20.8954 15 22 15C23.1046 15 24 15.8954 24 17ZM29 22C29 23.1046 28.1046 24 27 24C25.8954 24 25 23.1046 25 22C25 20.8954 25.8954 20 27 20C28.1046 20 29 20.8954 29 22ZM22 29C23.1046 29 24 28.1046 24 27C24 25.8954 23.1046 25 22 25C20.8954 25 20 25.8954 20 27C20 28.1046 20.8954 29 22 29ZM19 32C19 33.1046 18.1046 34 17 34C15.8954 34 15 33.1046 15 32C15 30.8954 15.8954 30 17 30C18.1046 30 19 30.8954 19 32ZM12 39C13.1046 39 14 38.1046 14 37C14 35.8954 13.1046 35 12 35C10.8954 35 10 35.8954 10 37C10 38.1046 10.8954 39 12 39ZM9 42C9 43.1046 8.10457 44 7 44C5.89543 44 5 43.1046 5 42C5 40.8954 5.89543 40 7 40C8.10457 40 9 40.8954 9 42Z" fill="#8DC63F"/>
</svg>
