<svg width="24" height="23" viewBox="0 0 24 23" fill="none" xmlns="http://www.w3.org/2000/svg">
<path fill-rule="evenodd" clip-rule="evenodd" d="M2.06069 19.7383C1.4749 20.324 1.4749 21.2738 2.06069 21.8596C2.64648 22.4454 3.59622 22.4454 4.18201 21.8596L12.0001 14.0415L20.0312 22.0725C20.617 22.6583 21.5668 22.6583 22.1525 22.0725C22.7383 21.4868 22.7383 20.537 22.1525 19.9512L14.1215 11.9201L23.2739 2.76769C23.8597 2.1819 23.8597 1.23216 23.2739 0.646371C22.6881 0.0605845 21.7384 0.0605848 21.1526 0.646371L12.0001 9.79881L3.06066 0.859341C2.47487 0.273554 1.52513 0.273554 0.93934 0.859341C0.353553 1.44513 0.353554 2.39488 0.93934 2.98066L9.87881 11.9201L2.06069 19.7383Z" fill="white"/>
</svg>
