<svg width="16" height="16" viewBox="0 0 16 16" fill="none" xmlns="http://www.w3.org/2000/svg">
<path fill-rule="evenodd" clip-rule="evenodd" d="M7.25 0.5C8.49264 0.5 9.5 1.50736 9.5 2.75L9.50007 3.62801C9.73463 3.54511 9.98705 3.5 10.25 3.5H13.25C14.4926 3.5 15.5 4.50736 15.5 5.75V13.25C15.5 14.4926 14.4926 15.5 13.25 15.5H2.75C1.50736 15.5 0.5 14.4926 0.5 13.25V2.75C0.5 1.50736 1.50736 0.5 2.75 0.5H7.25ZM7.25 2H2.75C2.33579 2 2 2.33579 2 2.75V13.25C2 13.6642 2.33579 14 2.75 14H8V2.75C8 2.33579 7.66421 2 7.25 2ZM13.25 5H10.25C9.83579 5 9.5 5.33579 9.5 5.75V14H13.25C13.6642 14 14 13.6642 14 13.25V5.75C14 5.33579 13.6642 5 13.25 5ZM5.75 9.5C6.16421 9.5 6.5 9.83579 6.5 10.25C6.5 10.6642 6.16421 11 5.75 11H4.25C3.83579 11 3.5 10.6642 3.5 10.25C3.5 9.83579 3.83579 9.5 4.25 9.5H5.75ZM12.5 9.5C12.9142 9.5 13.25 9.83579 13.25 10.25C13.25 10.6642 12.9142 11 12.5 11H11C10.5858 11 10.25 10.6642 10.25 10.25C10.25 9.83579 10.5858 9.5 11 9.5H12.5ZM5.75 6.5C6.16421 6.5 6.5 6.83579 6.5 7.25C6.5 7.66421 6.16421 8 5.75 8H4.25C3.83579 8 3.5 7.66421 3.5 7.25C3.5 6.83579 3.83579 6.5 4.25 6.5H5.75ZM12.5 6.5C12.9142 6.5 13.25 6.83579 13.25 7.25C13.25 7.66421 12.9142 8 12.5 8H11C10.5858 8 10.25 7.66421 10.25 7.25C10.25 6.83579 10.5858 6.5 11 6.5H12.5ZM5.75 3.5C6.16421 3.5 6.5 3.83579 6.5 4.25C6.5 4.66421 6.16421 5 5.75 5H4.25C3.83579 5 3.5 4.66421 3.5 4.25C3.5 3.83579 3.83579 3.5 4.25 3.5H5.75Z" fill="#2A2A86"/>
</svg>
