<svg width="313" height="58" viewBox="0 0 313 58" fill="none" xmlns="http://www.w3.org/2000/svg">
<path d="M29.9994 31.2556C29.8797 36.5769 26.7956 45.2309 20.167 48.2045C15.4533 50.322 10.086 48.4347 6.45874 44.881C0.493026 39.0626 -1.35745 29.3868 1.43207 21.5153C2.82223 16.7925 6.76255 11.508 11.8076 10.3112C14.4775 9.51024 17.7457 10.0074 20.1578 11.3055C21.5571 9.07754 23.5181 6.86802 25.7092 5.34897V5.28453C21.7505 3.48008 16.0886 3.72865 12.2403 5.79088C19.0162 0.902305 29.2629 -0.782457 37.5946 1.94262C40.421 2.87246 43.1552 4.09691 45.6594 5.86453C41.406 3.72865 35.5876 2.90929 30.9476 4.87945C21.3454 9.05913 17.9298 19.4991 17.847 29.2302C18.0311 34.7356 19.4949 39.7347 22.266 44.1077C24.0613 42.7083 24.8714 40.6829 25.746 38.8048C27.0533 35.5182 27.6333 32.0106 27.6886 28.1991C27.7898 21.9388 30.6714 12.8982 37.834 9.98897C43.2473 7.78865 48.8356 10.3204 52.5825 14.6382C57.1121 20.0975 58.9625 27.9045 56.974 34.9566C55.7495 40.3147 51.7264 46.5106 46.0184 47.9836C43.2473 48.7661 39.9975 48.3334 37.5578 46.9801C36.1216 49.2633 34.2435 51.4636 32.034 53.0747V53.1207C36.186 55.008 41.7467 54.6766 45.7054 52.4671C38.3587 57.9633 26.8784 59.4363 18.1692 55.7906C16.0057 54.9067 13.8975 53.7928 11.9549 52.3934C16.5121 54.962 23.6378 55.6709 28.4251 52.7525C36.2137 48.0848 39.3714 39.569 39.8502 31.0991C40.1632 24.802 38.5152 19.1125 35.4679 14.1871C33.6083 15.6693 32.7337 17.7775 31.8775 19.7661C30.4689 23.3106 30.0914 27.1128 29.9994 31.2556Z" fill="white"/>
<path d="M224.345 51.1965V42.1098H223.185V41.6495H228.074C229.354 41.6495 230.329 41.8612 231.232 42.5425C232.392 43.4263 233.11 44.9546 233.11 46.667C233.11 48.3793 232.373 49.926 231.186 50.819C230.375 51.4174 229.354 51.6844 228.019 51.6844H223.195V51.1873H224.345V51.1965ZM227.973 51.1965C228.838 51.1965 229.381 51.132 229.786 50.6073C230.283 49.9536 230.375 48.8581 230.375 47.2562V46.5473C230.375 44.9086 230.348 43.7486 229.98 43.0212C229.565 42.2203 228.985 42.1098 227.973 42.1098H226.767V51.1965H227.973ZM240.337 49.7695C239.849 51.1873 238.928 51.8593 237.446 51.8593C235.393 51.8593 234.104 50.6073 234.104 48.7384C234.104 46.8971 235.485 45.4793 237.418 45.4793C239.177 45.4793 240.263 46.5749 240.263 48.3425V48.4162H236.424V49.926C236.424 51.0032 236.654 51.4727 237.593 51.4727C238.762 51.4727 239.573 50.8559 239.996 49.6498L240.337 49.7695ZM238.357 47.9466V46.7682C238.357 46.1238 238.063 45.8384 237.391 45.8384C236.746 45.8384 236.424 46.133 236.424 46.7682V47.9466H238.357ZM241.349 46.1238H240.733V45.6635H244.249V46.1238H243.513L244.94 49.5117L246.1 46.713C246.146 46.6209 246.192 46.5289 246.192 46.3724C246.192 46.2159 246.063 46.1238 245.796 46.1238H245.17V45.6635H247.536V46.1238H247.14C246.91 46.1238 246.772 46.2159 246.625 46.5565L244.406 51.9054H244.01L241.349 46.1238ZM254.091 49.7695C253.603 51.1873 252.682 51.8593 251.2 51.8593C249.147 51.8593 247.858 50.6073 247.858 48.7384C247.858 46.8971 249.239 45.4793 251.173 45.4793C252.931 45.4793 254.017 46.5749 254.017 48.3425V48.4162H250.178V49.926C250.178 51.0032 250.418 51.4727 251.348 51.4727C252.517 51.4727 253.327 50.8559 253.75 49.6498L254.091 49.7695ZM252.112 47.9466V46.7682C252.112 46.1238 251.817 45.8384 251.145 45.8384C250.501 45.8384 250.178 46.133 250.178 46.7682V47.9466H252.112ZM255.5 51.2241V42.1098H254.542V41.6495C255.601 41.6219 256.595 41.5574 257.525 41.4654V51.2333H258.446V51.6936H254.643V51.2333H255.5V51.2241ZM262.561 45.4793C264.614 45.4793 265.995 46.8235 265.995 48.6647C265.995 50.506 264.614 51.8593 262.561 51.8593C260.508 51.8593 259.145 50.5152 259.145 48.6739C259.145 46.8327 260.508 45.4793 262.561 45.4793ZM261.419 48.6555V49.2724C261.419 50.8374 261.493 51.4819 262.579 51.4819C263.666 51.4819 263.721 50.7822 263.721 48.8857V47.9927C263.721 46.492 263.629 45.8476 262.579 45.8476C261.456 45.8476 261.419 46.6209 261.419 48.6555ZM266.787 54.6028H267.606V46.1238H266.648V45.6635C267.707 45.6359 268.702 45.5714 269.631 45.4793V46.6393C270.073 45.866 270.69 45.4793 271.509 45.4793C273.047 45.4793 274.207 46.8235 274.207 48.6924C274.207 50.4968 273.028 51.8778 271.509 51.8778C270.69 51.8778 270.073 51.5095 269.631 50.7362V54.612H270.69V55.0724H266.787V54.6028ZM271.979 47.0997C271.979 46.2987 271.905 45.9212 271.242 45.9212C270.303 45.9212 269.631 46.7406 269.631 48.1032V49.2632C269.631 50.6257 270.294 51.4451 271.242 51.4451C271.868 51.4451 271.979 51.0584 271.979 50.2851V47.0997ZM275.873 51.2241V46.1146H274.962V45.6543C275.855 45.6543 276.812 45.6082 277.834 45.5254V47.0536C278.377 45.9857 279.077 45.507 280.117 45.507C281.185 45.507 281.765 46.0133 281.793 47.0076C282.336 45.9673 283.036 45.507 284.095 45.507C284.757 45.507 285.227 45.6911 285.531 46.0778C285.752 46.3539 285.779 46.7314 285.779 47.1733V51.2241H286.672V51.6844H283.036V51.2241H283.8V46.9708C283.8 46.4184 283.625 46.1698 283.201 46.1698C282.529 46.1698 281.775 47.1273 281.775 48.3517V51.2241H282.493V51.6844H279.086V51.2241H279.832V46.9708C279.832 46.4184 279.657 46.1698 279.234 46.1698C278.562 46.1698 277.843 47.1549 277.843 48.3517V51.2241H278.561V51.6844H275.072V51.2241H275.873ZM293.549 49.7695C293.061 51.1873 292.141 51.8593 290.659 51.8593C288.606 51.8593 287.317 50.6073 287.317 48.7384C287.317 46.8971 288.698 45.4793 290.631 45.4793C292.389 45.4793 293.476 46.5749 293.476 48.3425V48.4162H289.637V49.926C289.637 51.0032 289.867 51.4727 290.815 51.4727C291.984 51.4727 292.795 50.8559 293.218 49.6498L293.549 49.7695ZM291.57 47.9466V46.7682C291.57 46.1238 291.275 45.8384 290.603 45.8384C289.959 45.8384 289.637 46.133 289.637 46.7682V47.9466H291.57ZM295.262 51.2241V46.0962H294.295V45.6174C295.253 45.6174 296.228 45.5898 297.278 45.507V47.0352C297.83 45.9673 298.539 45.4886 299.607 45.4886C301.135 45.4886 301.292 46.2343 301.292 47.6797V51.2149H302.139V51.6752H298.558V51.2149H299.303V46.9524C299.303 46.4 299.128 46.133 298.705 46.133C298.033 46.133 297.278 47.1365 297.278 48.3241V51.2149H298.015V51.6752H294.378V51.2149H295.262V51.2241ZM303.465 46.1146H302.627V45.6543H303.465V43.7854C303.741 43.813 304.026 43.8314 304.312 43.8314C304.68 43.8314 305.048 43.8038 305.426 43.7578V45.6543H306.595V46.1146H305.426V50.3127C305.426 50.819 305.527 50.9939 305.895 50.9939C306.263 50.9939 306.512 50.6533 306.558 50.1101H306.954C306.899 51.1597 306.088 51.8409 304.919 51.8409C303.64 51.8409 303.465 51.3898 303.465 50.3127V46.1146ZM231.25 29.893V8.12919H228.792V7.01522H241.561C246.487 7.01522 249.267 9.34442 249.267 12.7508C249.267 15.6692 247.048 17.4828 242.721 18.1549V18.4495C247.683 18.8914 250.178 20.926 250.178 24.4428C250.178 28.4752 246.8 31.0622 241.313 31.0622H228.792V29.8746H231.25V29.893ZM239.131 17.8695C242.611 17.8695 243.209 16.9028 243.209 12.9809C243.209 8.61712 242.859 8.12919 238.919 8.12919H236.949V17.8603H239.131V17.8695ZM240.005 29.893C243.347 29.893 243.844 28.8527 243.844 24.3784C243.844 20.0146 243.034 18.9006 239.517 18.9006H236.949V29.893H240.005ZM255.555 31.4489C253.161 31.4489 251.863 30.1139 251.863 27.8216C251.863 24.8203 255.03 22.6752 260.729 22.6752V19.1584C260.729 17.6393 260.305 17.1606 258.372 17.1606C257.175 17.1606 256.577 17.4552 256.577 18.0076C256.577 18.3759 257.212 18.8914 257.212 19.9317C257.212 21.3403 256.365 22.1136 254.855 22.1136C253.52 22.1136 252.784 21.3035 252.784 19.8581C252.784 17.5657 255.067 16.1939 259.293 16.1939C261.263 16.1939 262.736 16.5254 263.62 17.0041C264.991 17.7406 265.065 18.6705 265.065 20.3736V27.8492C265.065 28.6962 265.378 29.1105 266.151 29.1105C266.612 29.1105 266.787 28.779 267.035 28.779C267.247 28.779 267.385 28.9632 267.385 29.1473C267.385 29.7733 266.151 31.4397 264.08 31.4397C262.57 31.4397 261.336 30.5098 260.848 28.9263C259.422 30.7124 257.838 31.4489 255.555 31.4489ZM260.296 23.6787C257.553 23.6787 256.466 24.3784 256.466 26.4959C256.466 28.5305 256.991 29.4235 258.4 29.4235C259.735 29.4235 260.72 28.42 260.72 26.7997V23.6879H260.296V23.6787ZM270.313 29.9666V17.6854H267.993V16.5346C270.276 16.5346 272.633 16.4609 275.128 16.2768V19.9409C276.462 17.3908 278.156 16.24 280.716 16.24C284.371 16.24 284.757 18.0168 284.757 21.4968V29.9666H286.801V31.0806H278.221V29.9666H280.016V19.7568C280.016 18.4219 279.593 17.7959 278.571 17.7959C276.95 17.7959 275.155 20.1987 275.155 23.0527V29.9759H276.914V31.0898H268.195V29.9759H270.313V29.9666ZM289.655 29.9666V8.13839H287.934V7.02442C289.83 6.95077 291.975 6.80347 294.442 6.58252V29.9666H296.661V31.0806H287.943V29.9666H289.655Z" fill="white"/>
<path d="M300.73 17.7221H297.425V16.6082H304.781V17.7221H302.176L298.558 20.8615L305.306 29.9666H306.751V31.0805H297.849V29.9666H299.607L294.617 23.1263L300.73 17.7221ZM69.9088 46.1237H68.9882V45.6634H69.9088V45.3412C69.9088 43.058 71.2622 41.4469 72.9561 41.4469C74.0149 41.4469 74.6685 41.9993 74.6685 42.7726C74.6685 43.4078 74.3279 43.7577 73.7479 43.7577C73.2323 43.7577 72.8641 43.3986 72.8641 42.8923C72.8641 42.432 73.2415 42.257 73.2415 42.0913C73.2415 41.9809 73.085 41.8796 72.8181 41.8796C72.2288 41.8796 71.879 42.3767 71.879 43.3342C71.879 44.0339 71.925 44.6139 71.925 45.0834V45.6726H73.1863V46.1329H71.925V51.2332H72.9561V51.6936H69.0527V51.2332H69.8996V46.1237H69.9088ZM77.6146 45.4793C79.6676 45.4793 81.0485 46.8234 81.0485 48.6647C81.0485 50.5059 79.6676 51.8593 77.6146 51.8593C75.5615 51.8593 74.199 50.5151 74.199 48.6739C74.1898 46.8326 75.5615 45.4793 77.6146 45.4793ZM76.4638 48.6555V49.2723C76.4638 50.8374 76.5374 51.4818 77.6238 51.4818C78.7101 51.4818 78.7654 50.7821 78.7654 48.8856V47.9926C78.7654 46.492 78.6733 45.8475 77.6238 45.8475C76.5098 45.8475 76.4638 46.6209 76.4638 48.6555ZM82.0428 51.224H82.8161V46.1237H82.0244V45.6634C82.945 45.6358 83.8749 45.5713 84.7955 45.4793V47.1364C85.1914 46.0869 85.8635 45.5161 86.5815 45.5161C87.3181 45.5161 87.8612 46.0593 87.8612 46.7682C87.8612 47.4034 87.4377 47.8821 86.8209 47.8821C86.3054 47.8821 85.8819 47.431 85.8819 46.8418C85.8819 46.5472 86.0568 46.4275 86.0568 46.271C86.0568 46.225 86.0107 46.179 85.9371 46.179C85.5965 46.179 84.8415 47.2469 84.8415 48.499V51.2332H85.9003V51.6936H82.0428V51.224ZM94.0939 51.1964V42.1097H92.98V41.6494H98.3012C100.529 41.6494 101.708 42.4504 101.708 43.8405C101.708 45.2583 100.594 46.1605 98.5406 46.2618V46.3907C100.686 46.7037 101.385 47.7072 101.385 49.972C101.385 50.7729 101.459 51.1596 102.002 51.1596C102.177 51.1596 102.398 51.1136 102.647 51.0215L102.794 51.4358C102.103 51.758 101.514 51.8961 101.137 51.8961C100.317 51.8961 99.6546 51.6199 99.2863 51.1872C98.6603 50.4507 98.6971 49.484 98.6603 48.3793C98.605 47.0167 98.1355 46.5288 96.7638 46.5288H96.5152V51.1964H97.7581V51.6936H92.98V51.1964H94.0939ZM97.712 46.0317C98.9181 46.0317 99.1022 45.5529 99.1022 44.1444C99.1022 42.3859 99.0561 42.1097 97.712 42.1097H96.506V46.0317H97.712ZM109.45 49.7694C108.962 51.1872 108.042 51.8593 106.559 51.8593C104.506 51.8593 103.217 50.6072 103.217 48.7383C103.217 46.897 104.598 45.4793 106.532 45.4793C108.29 45.4793 109.376 46.5748 109.376 48.3424V48.4161H105.537V49.9259C105.537 51.0031 105.777 51.4726 106.716 51.4726C107.885 51.4726 108.695 50.8558 109.119 49.6497L109.45 49.7694ZM107.471 47.9466V46.7682C107.471 46.1237 107.176 45.8383 106.504 45.8383C105.86 45.8383 105.537 46.1329 105.537 46.7682V47.9466H107.471ZM116.41 49.7694C115.959 51.1412 115.075 51.8409 113.796 51.8409C111.917 51.8409 110.555 50.4231 110.555 48.6463C110.555 46.9155 112.009 45.4793 113.924 45.4793C115.287 45.4793 116.152 46.225 116.152 47.1824C116.152 47.7532 115.756 48.1675 115.213 48.1675C114.587 48.1675 114.219 47.7532 114.219 47.1364C114.219 46.5472 114.679 46.3631 114.679 46.1974C114.679 45.9488 114.431 45.8475 113.934 45.8475C112.847 45.8475 112.801 46.4367 112.801 47.7348V49.5853C112.801 50.865 112.921 51.4266 113.961 51.4266C114.974 51.4266 115.692 50.8282 116.069 49.6682L116.41 49.7694ZM120.857 45.4793C122.91 45.4793 124.291 46.8234 124.291 48.6647C124.291 50.5059 122.91 51.8593 120.857 51.8593C118.804 51.8593 117.441 50.5151 117.441 48.6739C117.441 46.8326 118.804 45.4793 120.857 45.4793ZM119.715 48.6555V49.2723C119.715 50.8374 119.789 51.4818 120.875 51.4818C121.962 51.4818 122.017 50.7821 122.017 48.8856V47.9926C122.017 46.492 121.925 45.8475 120.875 45.8475C119.761 45.8475 119.715 46.6209 119.715 48.6555ZM125.902 51.3345V46.2066H124.935V45.7278C125.893 45.7278 126.869 45.7002 127.918 45.6174V47.1456C128.47 46.0777 129.179 45.599 130.247 45.599C131.776 45.599 131.932 46.3447 131.932 47.7901V51.3253H132.779V51.7856H129.198V51.3253H129.943V47.0628C129.943 46.5104 129.769 46.2434 129.345 46.2434C128.673 46.2434 127.918 47.2469 127.918 48.4345V51.3253H128.655V51.7856H125.018V51.3253H125.902V51.3345ZM133.654 49.5577H134.031C134.372 50.8834 135.09 51.5647 136.13 51.5647C136.996 51.5647 137.52 51.0583 137.52 50.4691C137.52 49.7602 136.857 49.8247 135.67 49.6313C134.289 49.4196 133.635 48.9685 133.635 47.744C133.635 46.3999 134.455 45.5805 135.707 45.5805C136.222 45.5805 136.701 45.7186 137.097 45.9396L137.401 45.6634H137.695L137.741 47.3758H137.364C137.069 46.4367 136.517 45.958 135.725 45.958C134.906 45.958 134.39 46.3631 134.39 46.7958C134.39 47.3482 135.007 47.3666 136.241 47.5415C137.723 47.744 138.321 48.2688 138.321 49.659C138.321 51.0767 137.502 51.979 136.093 51.979C135.403 51.979 134.841 51.7948 134.436 51.4726L134.022 51.8132H133.672L133.654 49.5577ZM139.886 46.225H139.049V45.7647H139.886V43.8958C140.163 43.9234 140.448 43.9418 140.733 43.9418C141.102 43.9418 141.47 43.9142 141.847 43.8682V45.7647H143.016V46.225H141.847V50.4231C141.847 50.9294 141.949 51.1044 142.317 51.1044C142.685 51.1044 142.934 50.7637 142.98 50.2205H143.376C143.32 51.2701 142.51 51.9513 141.341 51.9513C140.061 51.9513 139.886 51.5002 139.886 50.4231V46.225ZM143.992 51.3345H144.766V46.2342H143.974V45.7739C144.895 45.7463 145.824 45.6818 146.745 45.5897V47.2469C147.141 46.1974 147.813 45.6266 148.531 45.6266C149.268 45.6266 149.811 46.1697 149.811 46.8786C149.811 47.5139 149.387 47.9926 148.77 47.9926C148.255 47.9926 147.831 47.5415 147.831 46.9523C147.831 46.6577 148.006 46.538 148.006 46.3815C148.006 46.3355 147.96 46.2894 147.887 46.2894C147.546 46.2894 146.791 47.3574 146.791 48.6094V51.3437H147.85V51.804H143.992V51.3345ZM157.213 51.3253H158.152V51.7856C157.167 51.7856 156.2 51.8317 155.206 51.9145V50.3863C154.635 51.4726 153.926 51.9605 152.876 51.9605C152.214 51.9605 151.716 51.758 151.422 51.3713C151.219 51.0767 151.182 50.7085 151.182 50.1929V46.2066H150.225V45.7463C151.293 45.7278 152.278 45.6818 153.162 45.5897V50.4599C153.162 51.0123 153.337 51.2793 153.76 51.2793C154.451 51.2793 155.187 50.2574 155.187 49.0697V46.2066H154.147V45.7463C155.16 45.7463 156.172 45.6818 157.213 45.5897V51.3253ZM164.743 49.8799C164.292 51.2517 163.409 51.9513 162.129 51.9513C160.251 51.9513 158.888 50.5336 158.888 48.7567C158.888 47.0259 160.343 45.5897 162.258 45.5897C163.62 45.5897 164.486 46.3355 164.486 47.2929C164.486 47.8637 164.09 48.278 163.547 48.278C162.921 48.278 162.552 47.8637 162.552 47.2469C162.552 46.6577 163.003 46.4736 163.003 46.3078C163.003 46.0593 162.755 45.958 162.258 45.958C161.171 45.958 161.125 46.5472 161.125 47.8453V49.6958C161.125 50.9755 161.245 51.5371 162.285 51.5371C163.298 51.5371 164.016 50.9386 164.394 49.7786L164.743 49.8799ZM166.456 46.225H165.618V45.7647H166.456V43.8958C166.732 43.9234 167.017 43.9418 167.303 43.9418C167.671 43.9418 168.039 43.9142 168.417 43.8682V45.7647H169.595V46.225H168.417V50.4231C168.417 50.9294 168.518 51.1044 168.886 51.1044C169.255 51.1044 169.503 50.7637 169.549 50.2205H169.945C169.89 51.2701 169.08 51.9513 167.91 51.9513C166.631 51.9513 166.456 51.5002 166.456 50.4231V46.225ZM170.58 51.224H171.446V46.1237H170.488V45.6634C171.547 45.6358 172.541 45.5713 173.462 45.4793V51.224H174.373V51.6844H170.571V51.224H170.58ZM172.431 41.9717C172.992 41.9717 173.443 42.4504 173.443 43.0488C173.443 43.638 172.992 44.1351 172.412 44.1351C171.842 44.1351 171.4 43.638 171.4 43.0488C171.409 42.4504 171.878 41.9717 172.431 41.9717ZM178.424 45.4793C180.477 45.4793 181.858 46.8234 181.858 48.6647C181.858 50.5059 180.477 51.8593 178.424 51.8593C176.371 51.8593 175.009 50.5151 175.009 48.6739C174.999 46.8326 176.371 45.4793 178.424 45.4793ZM177.273 48.6555V49.2723C177.273 50.8374 177.347 51.4818 178.433 51.4818C179.52 51.4818 179.575 50.7821 179.575 48.8856V47.9926C179.575 46.492 179.483 45.8475 178.433 45.8475C177.319 45.8475 177.273 46.6209 177.273 48.6555ZM183.432 51.224V46.0961H182.466V45.6174C183.423 45.6174 184.399 45.5897 185.449 45.5069V47.0351C186.001 45.9672 186.71 45.4885 187.778 45.4885C189.306 45.4885 189.463 46.2342 189.463 47.6796V51.2148H190.309V51.6751H186.728V51.2148H187.474V46.9523C187.474 46.3999 187.299 46.1329 186.876 46.1329C186.203 46.1329 185.449 47.1364 185.449 48.324V51.2148H186.185V51.6751H182.549V51.2148H183.432V51.224ZM196.984 51.8409C195.99 51.8409 195.447 51.2885 195.447 50.331C195.447 49.079 196.763 48.1859 199.138 48.1859V46.7221C199.138 46.0869 198.963 45.8844 198.153 45.8844C197.656 45.8844 197.408 46.0132 197.408 46.2434C197.408 46.3999 197.675 46.6117 197.675 47.0443C197.675 47.6336 197.325 47.9558 196.689 47.9558C196.128 47.9558 195.824 47.6151 195.824 47.0167C195.824 46.0593 196.782 45.4885 198.54 45.4885C199.359 45.4885 199.976 45.6266 200.344 45.8291C200.915 46.1421 200.943 46.5288 200.943 47.2377V50.3586C200.943 50.7177 201.072 50.8834 201.394 50.8834C201.587 50.8834 201.661 50.7453 201.762 50.7453C201.854 50.7453 201.909 50.819 201.909 50.9018C201.909 51.1688 201.394 51.8593 200.529 51.8593C199.903 51.8593 199.387 51.4726 199.175 50.8097C198.595 51.537 197.942 51.8409 196.984 51.8409ZM198.963 48.6002C197.822 48.6002 197.362 48.8948 197.362 49.7786C197.362 50.6256 197.583 51.0031 198.172 51.0031C198.733 51.0031 199.138 50.5888 199.138 49.9075V48.6094H198.963V48.6002ZM203.143 51.224V46.0961H202.176V45.6174C203.134 45.6174 204.11 45.5897 205.15 45.5069V47.0351C205.703 45.9672 206.411 45.4885 207.479 45.4885C209.008 45.4885 209.164 46.2342 209.164 47.6796V51.2148H210.011V51.6751H206.43V51.2148H207.176V46.9523C207.176 46.3999 207.001 46.1329 206.577 46.1329C205.905 46.1329 205.15 47.1364 205.15 48.324V51.2148H205.887V51.6751H202.25V51.2148H203.143V51.224ZM215.268 50.7269C214.826 51.5002 214.2 51.8685 213.371 51.8685C211.843 51.8685 210.674 50.4967 210.674 48.6831C210.674 46.8142 211.834 45.4701 213.371 45.4701C214.191 45.4701 214.826 45.8567 215.268 46.6301V42.1005H214.136V41.6402C215.351 41.6126 216.391 41.5482 217.247 41.4561V51.224H218.039V51.6844H215.268V50.7269ZM215.268 48.1031C215.268 46.7405 214.596 45.9212 213.638 45.9212C213.022 45.9212 212.92 46.2618 212.92 47.0536V50.2666C212.92 51.0675 213.04 51.445 213.638 51.445C214.596 51.445 215.268 50.6256 215.268 49.2631V48.1031ZM68.979 29.8929H71.7593V8.12911H69.3657V7.01514H88.4228L88.4965 13.3399H87.3365C85.7898 9.23387 84.5193 8.1199 81.4628 8.1199H77.5593V17.9983C77.8079 18.0351 78.0841 18.0351 78.3327 18.0351C80.7908 18.0351 82.0244 16.737 82.4111 13.6345H83.5711V23.8812H82.4111C82.1625 20.5485 80.9381 19.1859 78.1946 19.1859C77.9828 19.1859 77.7711 19.2228 77.5593 19.2228V29.8837H81.3615C85.1914 29.8837 87.0971 27.8859 88.2939 23.0342H89.3803L89.1317 31.0621H68.979V29.8929ZM107.913 29.9297H110.159V31.0437C107.802 31.0437 105.482 31.1542 103.089 31.3383V27.6742C101.717 30.2704 100.032 31.4488 97.5003 31.4488C95.9168 31.4488 94.72 30.9701 94.0203 30.0402C93.5323 29.3405 93.4587 28.4475 93.4587 27.2231V17.6761H91.1755V16.5713C93.7441 16.5345 96.1009 16.424 98.2092 16.2031V27.8583C98.2092 29.1932 98.6327 29.8193 99.6546 29.8193C101.302 29.8193 103.07 27.3796 103.07 24.5256V17.6761H100.575V16.5713C103.006 16.5713 105.427 16.424 107.922 16.2031V29.9297H107.913ZM111.531 29.9666H113.4V17.7589H111.503V16.645C113.722 16.5713 115.931 16.424 118.15 16.2031V20.1618C119.098 17.6485 120.719 16.2767 122.44 16.2767C124.199 16.2767 125.506 17.5748 125.506 19.278C125.506 20.797 124.484 21.9386 123.011 21.9386C121.777 21.9386 120.765 20.8615 120.765 19.4621C120.765 18.7624 121.188 18.4586 121.188 18.0904C121.188 17.9799 121.087 17.8694 120.903 17.8694C120.093 17.8694 118.27 20.4196 118.27 23.4209V29.9666H120.802V31.0805H111.549V29.9666H111.531ZM134.989 16.2031C139.914 16.2031 143.219 19.4253 143.219 23.8259C143.219 28.2266 139.914 31.4856 134.989 31.4856C130.063 31.4856 126.795 28.2634 126.795 23.8628C126.795 19.4621 130.063 16.2031 134.989 16.2031ZM132.245 23.8259V25.3082C132.245 29.0459 132.42 30.6018 135.025 30.6018C137.631 30.6018 137.769 28.9355 137.769 24.3875V22.2424C137.769 18.652 137.557 17.0961 135.025 17.0961C132.346 17.0869 132.245 18.9374 132.245 23.8259ZM144.572 38.0682H146.543V17.7497H144.259V16.6358C146.791 16.5621 149.185 16.4148 151.394 16.1939V18.965C152.453 17.1145 153.926 16.1939 155.896 16.1939C159.588 16.1939 162.368 19.4161 162.368 23.8904C162.368 28.2174 159.56 31.5132 155.896 31.5132C153.926 31.5132 152.453 30.6202 151.394 28.7789V38.0682H153.926V39.1821H144.572V38.0682ZM157.019 20.0882C157.019 18.164 156.844 17.271 155.261 17.271C153.015 17.271 151.394 19.232 151.394 22.491V25.2621C151.394 28.5212 152.978 30.4821 155.261 30.4821C156.771 30.4821 157.019 29.5523 157.019 27.7018V20.0882ZM179.787 26.4866C178.627 29.8929 176.408 31.4856 172.854 31.4856C167.929 31.4856 164.836 28.4936 164.836 24.0101C164.836 19.6094 168.141 16.2031 172.781 16.2031C177.006 16.2031 179.603 18.8269 179.603 23.0526V23.2367H170.387V26.864C170.387 29.451 170.949 30.565 173.204 30.565C176.021 30.565 177.955 29.0828 178.967 26.2012L179.787 26.4866ZM175.045 22.1228V19.3056C175.045 17.7497 174.346 17.0869 172.725 17.0869C171.179 17.0869 170.405 17.7866 170.405 19.3056V22.1228H175.045ZM185.541 31.4488C183.147 31.4488 181.849 30.1139 181.849 27.8215C181.849 24.8202 185.016 22.6751 190.715 22.6751V19.1583C190.715 17.6393 190.291 17.1605 188.358 17.1605C187.161 17.1605 186.563 17.4551 186.563 18.0075C186.563 18.3758 187.198 18.8913 187.198 19.9316C187.198 21.3402 186.351 22.1136 184.841 22.1136C183.506 22.1136 182.769 21.3034 182.769 19.858C182.769 17.5656 185.053 16.1939 189.278 16.1939C191.249 16.1939 192.722 16.5253 193.605 17.004C194.977 17.7405 195.051 18.6704 195.051 20.3736V27.8491C195.051 28.6961 195.364 29.1104 196.137 29.1104C196.597 29.1104 196.772 28.7789 197.012 28.7789C197.223 28.7789 197.362 28.9631 197.362 29.1472C197.362 29.7732 196.128 31.4396 194.056 31.4396C192.547 31.4396 191.313 30.5097 190.825 28.9263C189.407 30.7123 187.824 31.4488 185.541 31.4488ZM190.291 23.6786C187.548 23.6786 186.461 24.3783 186.461 26.4958C186.461 28.5304 186.986 29.4234 188.395 29.4234C189.729 29.4234 190.715 28.4199 190.715 26.7996V23.6878H190.291V23.6786ZM200.133 29.9666V17.6853H197.813V16.5345C200.096 16.5345 202.453 16.4609 204.948 16.2767V19.9409C206.283 17.3907 207.976 16.2399 210.536 16.2399C214.191 16.2399 214.577 18.0167 214.577 21.4967V29.9666H216.621V31.0805H208.041V29.9666H209.836V19.7567C209.836 18.4218 209.413 17.7958 208.391 17.7958C206.77 17.7958 204.975 20.1986 204.975 23.0526V29.9758H206.734V31.0897H198.015V29.9758H200.133V29.9666Z" fill="white"/>
</svg>
