<svg width="58" height="58" viewBox="0 0 58 58" fill="none" xmlns="http://www.w3.org/2000/svg">
<path d="M29.9994 31.2556C29.8797 36.5769 26.7956 45.2309 20.167 48.2045C15.4533 50.322 10.086 48.4347 6.45874 44.881C0.493026 39.0626 -1.35745 29.3868 1.43207 21.5153C2.82223 16.7925 6.76255 11.508 11.8076 10.3112C14.4775 9.51024 17.7457 10.0074 20.1578 11.3055C21.5571 9.07754 23.5181 6.86802 25.7092 5.34897V5.28453C21.7505 3.48008 16.0886 3.72865 12.2403 5.79088C19.0162 0.902305 29.2629 -0.782457 37.5946 1.94262C40.421 2.87246 43.1552 4.09691 45.6594 5.86453C41.406 3.72865 35.5876 2.90929 30.9476 4.87945C21.3454 9.05913 17.9298 19.4991 17.847 29.2302C18.0311 34.7356 19.4949 39.7347 22.266 44.1077C24.0613 42.7083 24.8714 40.6829 25.746 38.8048C27.0533 35.5182 27.6333 32.0106 27.6886 28.1991C27.7898 21.9388 30.6714 12.8982 37.834 9.98897C43.2473 7.78865 48.8356 10.3204 52.5825 14.6382C57.1121 20.0975 58.9625 27.9045 56.974 34.9566C55.7495 40.3147 51.7264 46.5106 46.0184 47.9836C43.2473 48.7661 39.9975 48.3334 37.5578 46.9801C36.1216 49.2633 34.2435 51.4636 32.034 53.0747V53.1207C36.186 55.008 41.7467 54.6766 45.7054 52.4671C38.3587 57.9633 26.8784 59.4363 18.1692 55.7906C16.0057 54.9067 13.8975 53.7928 11.9549 52.3934C16.5121 54.962 23.6378 55.6709 28.4251 52.7525C36.2137 48.0848 39.3714 39.569 39.8502 31.0991C40.1632 24.802 38.5152 19.1125 35.4679 14.1871C33.6083 15.6693 32.7337 17.7775 31.8775 19.7661C30.4689 23.3106 30.0914 27.1128 29.9994 31.2556Z" fill="white"/>
</svg>
